<svg width="171" height="176" viewBox="0 0 171 176" fill="none" xmlns="http://www.w3.org/2000/svg">
<path d="M86.3969 25L87.3969 0.99998C75.9969 0.59998 64.5969 2.39998 53.7969 6.39998L62.1969 29C69.9969 26 78.1969 24.8 86.3969 25Z" fill="url(#paint0_linear_1501_11)"/>
<path d="M52.5984 33.4C54.1984 32.4 55.9984 31.6 57.7984 30.8L47.7984 9L40.5984 12.6C32.9984 17 26.1984 22.4 20.3984 28.8L37.9984 45.2C41.9984 40.6 46.9984 36.6 52.5984 33.4Z" fill="url(#paint1_linear_1501_11)"/>
<path d="M34.5984 48.8L15.7984 34C8.79844 43 3.59844 53 0.398438 64L23.3984 70.6C25.7984 62.6 29.3984 55.4 34.5984 48.8Z" fill="url(#paint2_linear_1501_11)"/>
<path d="M126.199 12C116.199 6.39998 105.399 2.99998 93.9992 1.59998L91.1992 25.4C99.3992 26.4 107.199 28.8 114.599 33L126.199 12Z" fill="url(#paint3_linear_1501_11)"/>
<path d="M159.4 44.6C155.6 38 151 32 145.6 26.6C141.6 22.4 137 18.8 132.2 15.6L119 35.6C122.4 38 125.8 40.6 128.8 43.6C132.6 47.6 136 51.8 138.8 56.6C144 66 147 77 147 88C147 110.4 135 131.4 115.6 142.6C97.6 153 76.2 153.8 57.8 145.4L65.4 137.6L19 125.6L31.8 171.8L40.2 163.2C53.8 171.2 68.8 175.2 84 175.2C99 175.2 114 171.2 127.6 163.4C154.4 147.8 171 119 171 88C171 72.8 167 57.8 159.4 44.6Z" fill="url(#paint4_linear_1501_11)"/>
<defs>
<linearGradient id="paint0_linear_1501_11" x1="57.4605" y1="3.44968" x2="80.9004" y2="33.558" gradientUnits="userSpaceOnUse">
<stop stop-color="#0078BC"/>
<stop offset="1" stop-color="white"/>
</linearGradient>
<linearGradient id="paint1_linear_1501_11" x1="24.4764" y1="12.2313" x2="55.5113" y2="46.6194" gradientUnits="userSpaceOnUse">
<stop stop-color="#0078BC"/>
<stop offset="1" stop-color="white"/>
</linearGradient>
<linearGradient id="paint2_linear_1501_11" x1="4.12747" y1="37.267" x2="35.6705" y2="68.8784" gradientUnits="userSpaceOnUse">
<stop stop-color="#0078BC"/>
<stop offset="1" stop-color="white"/>
</linearGradient>
<linearGradient id="paint3_linear_1501_11" x1="95.0155" y1="4.40285" x2="121.651" y2="36.245" gradientUnits="userSpaceOnUse">
<stop stop-color="#0078BC"/>
<stop offset="1" stop-color="white"/>
</linearGradient>
<linearGradient id="paint4_linear_1501_11" x1="35.5735" y1="29.8464" x2="173.091" y2="170.31" gradientUnits="userSpaceOnUse">
<stop stop-color="#0078BC"/>
<stop offset="1" stop-color="white"/>
</linearGradient>
</defs>
</svg>
