<svg width="33" height="33" viewBox="0 0 32 32" fill="none" xmlns="http://www.w3.org/2000/svg">
    
    <path d="M16 4.86A8.787 8.787 0 0 0 3.574 17.287L16 29.713l12.427-12.426A8.787 8.787 0 0 0 16 4.86Z" fill="#186ECB"/>
    <path d="m5.644 17.287 11.221 11.56 11.56-11.56A8.787 8.787 0 1 0 16 4.86a8.754 8.754 0 0 0-2.725-1.846c-2.58-.767-5.567.51-7.63 2.986a8.5 8.5 0 0 0 0 11.287Z" fill="#015BBB"/>
    <path d="M1.932 15c.42.846.975 1.618 1.642 2.287l12.427 12.426 12.426-12.426A8.761 8.761 0 0 0 30.07 15H1.932Z" fill="#FFDF3A"/>
    <path d="m5.645 17.287 11.221 11.56 11.56-11.56A8.764 8.764 0 0 0 30.07 15H4.225a9.61 9.61 0 0 0 1.42 2.287Z" fill="#FED501"/>
</svg>