<svg width="24" height="24" viewBox="0 0 24 24" fill="none" xmlns="http://www.w3.org/2000/svg">
<g clip-path="url(#clip0_381_76)">
<path d="M21.2961 5.62847L4.06834 16.365L3.29688 16.8489C3.92437 17.9337 4.69172 18.9313 5.5793 19.816L6.38272 19.323L21.2961 10.134L22.2091 9.5725V5.05786L21.2961 5.62847Z" fill="#101010"/>
<path d="M21.297 11.1884L7.08207 19.9666L6.26953 20.4688C7.92412 21.9159 9.79565 23.0943 11.8158 23.9609C11.9335 24.013 12.0679 24.013 12.1856 23.9609C22.0457 19.5923 22.2054 12.4529 22.21 12.1562V10.627L21.297 11.1884Z" fill="#101010"/>
<path d="M21.9494 1.92637C20.7596 1.38851 19.511 0.991714 18.229 0.744071C17.9825 0.691062 17.7398 0.847921 17.6868 1.09437C17.6793 1.12923 17.6759 1.16489 17.6767 1.20056V4.69267H14.3717V0.584301C14.3727 0.347385 14.1923 0.149157 13.9563 0.127816C12.8106 0.0273891 12.0482 0 11.9889 0C11.9296 0 11.1946 0.0228243 10.0488 0.127816C9.81289 0.149157 9.63246 0.347385 9.63343 0.584301V4.69267H6.32391V1.19143C6.32956 0.93939 6.12979 0.730491 5.87776 0.724842C5.84209 0.724043 5.80643 0.727409 5.77157 0.734941C4.48958 0.982585 3.24098 1.37938 2.05121 1.91724C1.8927 1.99273 1.79153 2.1525 1.79102 2.32807V12.1608C1.88146 13.5147 2.24973 14.8355 2.87289 16.0409L3.65348 15.557L21.2966 4.55116L22.2096 3.98055V2.3372C22.2091 2.16163 22.1079 2.00186 21.9494 1.92637Z" fill="#101010"/>
</g>
<defs>
<clipPath id="clip0_381_76">
<rect width="24" height="24" fill="white"/>
</clipPath>
</defs>
</svg>
