<svg width="47" height="50" viewBox="0 0 47 50" fill="none" xmlns="http://www.w3.org/2000/svg">
    <ellipse cx="28" cy="30.5" rx="18" ry="19.5" fill="#FED501"/>
    <path d="M22.2286 0C23.6913 0 24.846 0.51963 25.6928 1.55889C26.5396 2.55966 27.0785 3.9261 27.3095 5.6582C27.4634 6.69746 27.5982 7.92918 27.7136 9.35335C27.8676 10.739 27.9831 12.2017 28.06 13.7413C28.1755 15.2425 28.2717 16.7436 28.3487 18.2448C28.4642 19.7075 28.5797 21.0354 28.6951 22.2286C28.8106 23.3834 28.9261 24.3264 29.0416 25.0577C29.157 25.7891 29.2918 26.1547 29.4457 26.1547C29.5997 26.1547 29.8884 25.7506 30.3118 24.9423C30.7352 24.1339 31.2548 23.1332 31.8707 21.94C32.4865 20.7467 33.1794 19.4573 33.9492 18.0716C34.7575 16.6474 35.6236 15.3387 36.5473 14.1455C37.5096 12.9523 38.5104 11.9515 39.5497 11.1432C40.6274 10.3349 41.7244 9.93072 42.8406 9.93072C44.0339 9.93072 44.8807 10.2579 45.3811 10.9122C45.8814 11.5281 46.1316 12.3364 46.1316 13.3372C46.1316 14.4534 45.7275 15.5889 44.9192 16.7436C44.1493 17.8984 43.1678 19.0146 41.9746 20.0924C40.7814 21.1701 39.4919 22.2094 38.1062 23.2102C36.759 24.1724 35.4888 25.0577 34.2956 25.8661C33.1024 26.6359 32.1016 27.3095 31.2933 27.8868C30.5235 28.4257 30.1386 28.8299 30.1386 29.0993C30.1386 29.4842 30.5042 29.9846 31.2356 30.6005C32.0054 31.2163 32.9484 31.9284 34.0647 32.7367C35.2194 33.545 36.4511 34.4303 37.7598 35.3926C39.107 36.3549 40.3387 37.3749 41.455 38.4527C42.6097 39.4919 43.5527 40.6082 44.2841 41.8014C45.0539 42.9561 45.4388 44.1493 45.4388 45.3811C45.4388 46.6898 45.0731 47.7868 44.3418 48.6721C43.649 49.5574 42.6289 50 41.2818 50C40.05 50 38.9338 49.6728 37.933 49.0185C36.9707 48.3641 36.0854 47.4788 35.2771 46.3626C34.2379 44.9384 33.2948 43.418 32.448 41.8014C31.6012 40.1848 30.8507 38.7028 30.1963 37.3557C29.542 36.0085 28.9838 34.8922 28.5219 34.0069C28.0985 33.0831 27.7714 32.6212 27.5404 32.6212C27.3095 32.6212 26.8861 32.9677 26.2702 33.6605C25.6543 34.3149 24.923 35.1424 24.0762 36.1432C23.2679 37.144 22.3441 38.241 21.3048 39.4342C20.3041 40.6274 19.2841 41.7244 18.2448 42.7252C17.2055 43.7259 16.1663 44.5727 15.127 45.2656C14.1263 45.9199 13.2217 46.2471 12.4134 46.2471C11.6051 46.2471 10.893 46.0162 10.2771 45.5543C9.66128 45.0539 9.35335 44.3033 9.35335 43.3025C9.35335 42.3403 9.71901 41.378 10.4503 40.4157C11.2202 39.4149 12.1632 38.4527 13.2794 37.5289C14.4342 36.6051 15.6659 35.739 16.9746 34.9307C18.2833 34.0839 19.4958 33.3333 20.612 32.679C21.7667 32.0246 22.7098 31.4665 23.4411 31.0046C24.2109 30.5042 24.5958 30.1386 24.5958 29.9076C24.5958 29.6767 24.2494 29.5612 23.5566 29.5612C22.9022 29.5612 21.9977 29.5804 20.843 29.6189C19.6882 29.6574 18.3795 29.6767 16.9169 29.6767C15.3772 29.6767 13.7028 29.6767 11.8938 29.6767C10.1232 29.6382 8.37182 29.5227 6.63972 29.3303C4.79215 29.1378 3.21401 28.6952 1.90531 28.0023C0.635104 27.271 0 26.1355 0 24.5958C0 23.7875 0.134719 23.1139 0.404157 22.5751C0.673595 22.0362 1.02002 21.6128 1.44342 21.3049C1.90531 20.9584 2.4057 20.7275 2.94457 20.612C3.48345 20.4965 4.04157 20.4388 4.61894 20.4388C5.69669 20.4388 6.9669 20.6313 8.42956 21.0162C9.89222 21.3626 11.3934 21.8052 12.933 22.3441C14.4727 22.883 15.9931 23.4604 17.4942 24.0762C18.9954 24.6536 20.3233 25.2117 21.4781 25.7506C22.6713 26.251 23.6336 26.6551 24.3649 26.963C25.0962 27.271 25.4619 27.3865 25.4619 27.3095C25.4619 27.04 25.2694 26.4434 24.8845 25.5196C24.5381 24.5958 24.0762 23.4796 23.4988 22.1709C22.96 20.8622 22.3634 19.438 21.709 17.8984C21.0931 16.3587 20.4965 14.8191 19.9192 13.2794C19.3803 11.7013 18.9184 10.2194 18.5335 8.83372C18.1871 7.40955 18.0139 6.19707 18.0139 5.1963C18.0139 4.23403 18.1293 3.42571 18.3603 2.77136C18.6297 2.07852 18.9569 1.53965 19.3418 1.15473C19.7652 0.731332 20.2271 0.442648 20.7275 0.288684C21.2279 0.0962279 21.7283 0 22.2286 0Z" fill="#015BBB"/>
</svg>
