<svg width="24" height="24" viewBox="0 0 24 24" fill="none" xmlns="http://www.w3.org/2000/svg">
<g clip-path="url(#clip0_382_132)">
<path d="M14.0153 1.12573C14.2488 0.815361 14.1863 0.374625 13.876 0.141165C13.5658 -0.0921118 13.1249 -0.0298558 12.8914 0.280509L9.89453 4.26562H11.654L14.0153 1.12573Z" fill="#101010"/>
<path d="M6.7631 4.26569H8.50883L5.58206 0.286613C5.3519 -0.0263149 4.9119 -0.0933317 4.59915 0.136832C4.28622 0.366996 4.21921 0.807 4.44919 1.11974L6.7631 4.26569Z" fill="#101010"/>
<path d="M12.9842 9.89062H5.48438C4.8382 9.89062 4.3125 10.4163 4.3125 11.0625V17.1561C4.3125 17.8023 4.8382 18.328 5.48438 18.328H12.9842C13.6304 18.328 14.1561 17.8023 14.1561 17.1561V11.0625C14.1561 10.4163 13.6304 9.89062 12.9842 9.89062Z" fill="#101010"/>
<path d="M19.0781 16.8279C18.6903 16.8279 18.375 17.1434 18.375 17.531C18.375 17.9188 18.6903 18.2341 19.0781 18.2341C19.4658 18.2341 19.7813 17.9188 19.7813 17.531C19.7813 17.1434 19.4658 16.8279 19.0781 16.8279Z" fill="#101010"/>
<path d="M21.9374 5.67188H2.15625C0.993166 5.67188 0.046875 6.61817 0.046875 7.78125V20.3905C0.046875 21.5536 0.993166 22.4999 2.15625 22.4999H3.20637L2.97272 22.9983C2.80793 23.3498 2.95936 23.7686 3.31092 23.9334C3.6623 24.098 4.08106 23.9469 4.24604 23.5952L4.75947 22.4999H19.3341L19.8476 23.5952C20.0124 23.9469 20.4309 24.0982 20.7825 23.9334C21.1343 23.7684 21.2857 23.3498 21.1207 22.9983L20.8872 22.4999H21.9372C23.1004 22.4999 24.0466 21.5536 24.0466 20.3905V7.78125C24.0467 6.61817 23.1004 5.67188 21.9374 5.67188ZM15.5623 17.1561C15.5623 18.5777 14.4059 19.7342 12.9842 19.7342H5.48439C4.06275 19.7342 2.90626 18.5777 2.90626 17.1561V11.0625C2.90626 9.64088 4.06275 8.48438 5.48439 8.48438H12.9842C14.4059 8.48438 15.5623 9.64088 15.5623 11.0625V17.1561ZM19.078 19.6405C17.9149 19.6405 16.9686 18.6942 16.9686 17.5311C16.9686 16.368 17.9149 15.4217 19.078 15.4217C20.2411 15.4217 21.1874 16.368 21.1874 17.5311C21.1874 18.6942 20.2411 19.6405 19.078 19.6405ZM20.4842 12.703H17.6717C17.2834 12.703 16.9686 12.3882 16.9686 11.9998C16.9686 11.6116 17.2834 11.2967 17.6717 11.2967H20.4842C20.8724 11.2967 21.1874 11.6116 21.1874 11.9998C21.1874 12.3882 20.8724 12.703 20.4842 12.703ZM20.4842 9.89063H17.6717C17.2834 9.89063 16.9686 9.57569 16.9686 9.18751C16.9686 8.79914 17.2834 8.48438 17.6717 8.48438H20.4842C20.8724 8.48438 21.1874 8.79914 21.1874 9.18751C21.1874 9.57569 20.8724 9.89063 20.4842 9.89063Z" fill="#101010"/>
</g>
<defs>
<clipPath id="clip0_382_132">
<rect width="24" height="24" fill="white"/>
</clipPath>
</defs>
</svg>
