<svg width="51" height="51" viewBox="0 0 51 51" fill="none" xmlns="http://www.w3.org/2000/svg">
<path d="M42.927 35.728L42.918 35.719" stroke="#F9F9F9" stroke-width="2" stroke-miterlimit="10" stroke-linecap="round" stroke-linejoin="round"/>
<path d="M46.4446 45.746C46.0747 46.506 45.4346 47.076 44.6345 47.346L42.9446 47.916C42.6245 48.0359 42.2647 48.086 41.9146 48.086C40.5747 48.086 39.3745 47.236 38.9346 45.956L38.3145 44.156L44.8445 42.1961C45.2647 42.0659 45.6546 41.886 46.0047 41.636L46.5845 43.326C46.8645 44.126 46.8145 44.986 46.4446 45.746ZM34.5247 9.08596L27.4346 11.746L27.5645 3.28591C27.5747 2.86599 27.8445 2.49599 28.2446 2.35598C28.6345 2.21597 29.0845 2.34597 29.3445 2.66604L34.5247 9.08596ZM38.6045 20.0559L33.3145 21.656C32.4446 20.406 31.1646 19.476 29.6946 19.0559L27.8645 13.716L35.4546 10.886L38.6045 20.0559Z" fill="#F9F9F9"/>
<path d="M44.2848 40.276L37.0846 42.4362C33.7848 43.4161 31.6747 43.276 27.6446 43.4261C23.4113 36.0673 19.9998 27 21.8247 24.456C23.6495 21.9121 26.5047 21.036 26.5946 20.9861C29.0047 20.2661 31.5548 21.6461 32.2748 24.056L42.2848 21.026C43.4947 20.6561 44.7848 21.3861 45.1547 22.6461C45.5248 23.8861 44.8646 25.2161 43.6446 25.576L42.6547 25.8761C43.8646 25.5161 45.1547 26.2361 45.5248 27.4961C45.9247 28.8561 45.1547 30.0861 44.0048 30.4362L42.8048 30.796C44.0148 30.4362 45.2946 31.1561 45.6647 32.4161C46.0348 33.6261 45.3746 34.9961 44.1446 35.3561L42.9747 35.7061C44.1747 35.3761 45.4347 36.1061 45.8048 37.3361C46.1732 38.5494 45.5215 39.9138 44.2848 40.276Z" fill="#F9F9F9"/>
<path d="M10.725 27.7949C10.725 27.7949 8.17714 27.5 6.99987 31.5C5.82261 35.5 7.99949 44.1398 11.9997 46.8199C16 49.5 20.459 46.8199 20.459 46.8199L10.725 27.7949Z" fill="#F9F9F9"/>
<path d="M25.7913 44.215L25.5823 43.5291V43.5207C19.1487 33.5 19.1487 25.2327 19.1487 25.2327L12.6689 27.2036L22.4053 46.2319L25.1472 45.403C25.6492 45.2441 25.9336 44.7254 25.7913 44.215Z" fill="#F9F9F9"/>
</svg>
