<svg width="50" height="50" viewBox="0 0 50 50" fill="none" xmlns="http://www.w3.org/2000/svg">
<path d="M13.9998 13C16.4998 10.5001 35.1993 10 36.9996 15.9999C38.8 21.9999 36.5 18.5 32 20.5C30.8926 21.9289 33.5666 24.8024 31 26.0001C23.5 29.5001 11.4993 26.0001 10.4997 26.0001C9.50002 26.0001 11.4997 15.4999 13.9998 13Z" fill="#F9F9F9"/>
<path d="M47.2 35.4L44.55 32.7499C44.75 32.5999 44.9 32.4499 45.05 32.2999C46.2 31.0499 46.45 29.2999 45.75 27.8499C47 26.8499 47.6 25.15 47.1 23.5499C46.6 21.9499 45.2 20.85 43.6 20.7C43.35 19.1 42.2 17.75 40.55 17.35C40.05 17.25 39.55 17.2499 39.05 17.2999L38.85 16.5499C38.2 13.8999 36.15 11.9 33.5 11.3C27.9 9.99995 22 9.99995 16.45 11.3C13.8 11.9 11.75 13.8999 11.1 16.5499L7.60004 30.5999L2.80004 35.4C2.55004 35.65 2.45004 36.0499 2.55004 36.4C2.65004 36.75 2.95004 36.9999 3.30004 37.0999C10.4 38.8499 17.7 39.6999 25.05 39.6999C32.4 39.6999 39.65 38.8499 46.8 37.0999C47.15 36.9999 47.45 36.75 47.55 36.4C47.55 36.0499 47.45 35.65 47.2 35.4ZM37.75 20.65C38.05 19.65 39.1 19.05 40.1 19.25C41.15 19.5 41.8 20.4999 41.6 21.5499C41.55 21.9 41.65 22.2 41.9 22.45C42.15 22.7 42.5 22.75 42.8 22.7C43.8 22.45 44.85 23.0499 45.2 24.0499C45.5 25.0499 44.95 26.1499 44 26.4999C43.7 26.5999 43.45 26.9 43.35 27.1999C43.25 27.4999 43.35 27.8499 43.6 28.0999C44.35 28.8499 44.35 30.0499 43.6 30.8499C42.85 31.5999 41.65 31.6999 40.85 30.9999C40.6 30.7999 40.25 30.6999 39.9 30.7999C39.6 30.8999 39.35 31.15 39.25 31.4499C38.95 32.4499 37.9 33.0499 36.9 32.8499C35.85 32.5999 35.2 31.5999 35.4 30.5499C35.45 30.1999 35.35 29.8999 35.1 29.6499C34.9 29.4999 34.65 29.3999 34.4 29.3999H34.15C33.15 29.6499 32.1 29.0499 31.75 28.0499C31.45 27.0499 32 25.95 32.95 25.6C33.25 25.5 33.5 25.2 33.6 24.9C33.7 24.5499 33.6 24.25 33.35 24C32.6 23.25 32.6 22.05 33.35 21.25C34.1 20.5 35.3 20.4 36.1 21.1C36.35 21.3 36.7 21.4 37.05 21.2999C37.4 21.2499 37.65 21 37.75 20.65ZM13.05 17C13.55 15.1 15 13.65 16.9 13.2C22.2 12 27.8 12 33.05 13.2C34.95 13.65 36.45 15.1 36.9 17L37.15 18.0499C36.8 18.2999 36.55 18.6 36.3 18.95C34.8 18.35 33.05 18.7 31.9 19.95C30.75 21.2 30.5 22.95 31.2 24.4C30.65 24.7999 30.25 25.35 30 26C23.7 26.25 17.3 26 11 25.25L13.05 17ZM10.5 27.1999C15.3 27.7999 20.15 28.0999 25 28.0999C26.6 28.0999 28.15 28.0499 29.75 27.9999C29.75 28.2499 29.8 28.4499 29.9 28.6999C30.2 29.65 30.8 30.4499 31.6 30.8999C24.3 31.2999 17 30.9999 9.75004 30.1499L10.5 27.1999ZM5.50004 35.5499L8.95004 32.0999C14.3 32.7499 19.65 33.0999 25.05 33.0999C28 33.0999 30.95 32.9999 33.85 32.7999C34.35 33.7999 35.3 34.5999 36.5 34.8499C36.8 34.8999 37.1 34.9499 37.4 34.9499C38.7 34.9499 39.95 34.2999 40.7 33.1999C41.3 33.4499 41.9 33.4999 42.55 33.4499L44.6 35.4999C31.7 38.3999 18.3 38.3999 5.50004 35.5499Z" fill="#F9F9F9"/>
<circle cx="38.5" cy="26.5" r="2.5" fill="#F9F9F9"/>
</svg>
