<svg width="43" height="40" viewBox="0 0 43 40" fill="none" xmlns="http://www.w3.org/2000/svg">
<path fill-rule="evenodd" clip-rule="evenodd" d="M32.2502 18.3335V24.1668L39.4169 17.5001V35.8335L32.2502 29.1668V35.0001C32.2502 35.4421 32.0614 35.8661 31.7254 36.1786C31.3894 36.4912 30.9337 36.6668 30.4585 36.6668H8.95854C8.48336 36.6668 8.02764 36.4912 7.69164 36.1786C7.35563 35.8661 7.16687 35.4421 7.16687 35.0001V20.9668C6.83262 20.8537 6.51125 20.6807 6.19184 20.5088C6.13458 20.478 6.07739 20.4472 6.0202 20.4168C3.99624 19.2584 2.54969 17.3997 1.99868 15.2494C1.44766 13.0991 1.83728 10.8333 3.08187 8.95012C3.69561 8.01502 4.50212 7.20207 5.45496 6.55807C6.4078 5.91407 7.48816 5.45174 8.63385 5.19769C9.77954 4.94364 10.9679 4.9029 12.1306 5.0778C13.2933 5.2527 14.4073 5.63979 15.4085 6.21679C16.0535 5.00012 17.021 3.91679 18.2215 3.11679C20.1515 1.83262 22.5489 1.30998 24.8913 1.66274C27.2337 2.0155 29.3314 3.21508 30.7273 5.00012C33.6119 8.78345 32.6802 13.9835 28.6669 16.6668H30.4585C30.9337 16.6668 31.3894 16.8424 31.7254 17.1549C32.0614 17.4675 32.2502 17.8914 32.2502 18.3335ZM25.8257 7.6431C25.1537 7.01798 24.2422 6.66679 23.2919 6.66679C22.3415 6.66679 21.4301 7.01798 20.7581 7.6431C20.0861 8.26822 19.7085 9.11607 19.7085 10.0001C19.7085 10.8842 20.0861 11.732 20.7581 12.3571C21.4301 12.9823 22.3415 13.3335 23.2919 13.3335C24.2422 13.3335 25.1537 12.9823 25.8257 12.3571C26.4977 11.732 26.8752 10.8842 26.8752 10.0001C26.8752 9.11607 26.4977 8.26822 25.8257 7.6431ZM13.284 10.9764C12.612 10.3513 11.7006 10.0001 10.7502 10.0001C9.79984 10.0001 8.88841 10.3513 8.2164 10.9764C7.5444 11.6016 7.16687 12.4494 7.16687 13.3335C7.16687 14.2175 7.5444 15.0654 8.2164 15.6905C8.88841 16.3156 9.79984 16.6668 10.7502 16.6668C11.7006 16.6668 12.612 16.3156 13.284 15.6905C13.956 15.0654 14.3335 14.2175 14.3335 13.3335C14.3335 12.4494 13.956 11.6016 13.284 10.9764ZM14.3628 20.5C13.2582 20.5 12.3628 21.3954 12.3628 22.5V30.5C12.3628 31.6046 13.2582 32.5 14.3628 32.5H25.6082C26.7128 32.5 27.6082 31.6046 27.6082 30.5V22.5C27.6082 21.3954 26.7128 20.5 25.6082 20.5H14.3628Z" fill="#F9F9F9"/>
</svg>
