<svg width="40" height="40" viewBox="0 0 40 40" fill="none" xmlns="http://www.w3.org/2000/svg">
<path d="M17.8391 1.00021C12.8775 0.975702 7.95474 3.14687 4.63069 7.33451C-1.11929 14.5777 0.0913431 25.1105 7.33448 30.8604C7.85779 31.2762 8.43566 31.671 8.99058 32.0145C3.08379 26.0762 2.40226 16.5199 7.73699 9.80037C13.0714 3.0803 22.5327 1.57579 29.6561 5.98143C29.1963 5.51913 28.6799 5.04589 28.1567 4.63047C25.1009 2.20463 21.4596 1.01801 17.8391 1.00021ZM21.1708 6.5553C19.7681 6.54141 18.3558 6.88405 17.0065 7.66514L17.0171 7.6845L16.6977 7.84377C19.351 13.1579 20.3079 19.3228 19.7979 25.6141C18.4559 23.8452 16.119 22.418 13.7131 22.0709C10.3879 21.5914 8.19161 23.3563 8.80746 26.0131C9.42348 28.6698 12.6182 31.2122 15.9433 31.6917C18.6645 32.0842 20.6283 30.973 20.915 29.1004C21.6077 24.7586 21.6513 20.3978 20.962 16.2382C25.821 16.1455 29.9607 23.1329 26.84 30.2102C33.4341 23.7909 27.3921 11.7019 20.2012 12.7713C20.0485 12.2176 19.8812 11.6681 19.6993 11.1233C25.936 9.29887 33.1966 17.1672 30.6773 26.7121C36.9513 18.4643 29.2179 6.63583 21.1708 6.5553ZM30.9582 7.72036C37.0464 13.4723 38.0241 23.0028 32.9004 29.8848C27.7772 36.767 18.3668 38.5645 11.1103 34.3821C11.5844 34.8297 12.1149 35.2868 12.6509 35.6857C20.0692 41.208 30.5595 39.6715 36.0817 32.253C41.6041 24.8347 40.0674 14.3445 32.6491 8.82211C32.1133 8.42295 31.5235 8.04642 30.9582 7.72036Z" fill="#F9F9F9"/>
</svg>
