<svg width="42" height="48" viewBox="0 0 42 48" fill="none" xmlns="http://www.w3.org/2000/svg">
<path d="M38.5 14H33.5C33.5 14 32.055 14 31 11.5C30.4625 10.2275 29.88 9 28.5 9H18.5C17.12 9 16.52 10.22 16 11.5C14.985 14 13.5 14 13.5 14H11C11 13.337 10.7366 12.7011 10.2678 12.2322C9.79893 11.7634 9.16304 11.5 8.5 11.5H6C5.33696 11.5 4.70107 11.7634 4.23223 12.2322C3.76339 12.7011 3.5 13.337 3.5 14C2.83696 14 2.20107 14.2634 1.73223 14.7322C1.26339 15.2011 1 15.837 1 16.5L1 21.5H14.8875C16.62 18.5225 19.8075 16.5 23.5 16.5C27.1925 16.5 30.38 18.5225 32.1125 21.5H41V16.5C41 15.837 40.7366 15.2011 40.2678 14.7322C39.7989 14.2634 39.163 14 38.5 14ZM9.75 19H4.75C4.41848 19 4.10054 18.8683 3.86612 18.6339C3.6317 18.3995 3.5 18.0815 3.5 17.75C3.5 17.4185 3.6317 17.1005 3.86612 16.8661C4.10054 16.6317 4.41848 16.5 4.75 16.5H9.75C10.0815 16.5 10.3995 16.6317 10.6339 16.8661C10.8683 17.1005 11 17.4185 11 17.75C11 18.0815 10.8683 18.3995 10.6339 18.6339C10.3995 18.8683 10.0815 19 9.75 19ZM16 26.5C16 27.4849 16.194 28.4602 16.5709 29.3701C16.9478 30.2801 17.5003 31.1069 18.1967 31.8033C18.8931 32.4997 19.7199 33.0522 20.6299 33.4291C21.5398 33.806 22.5151 34 23.5 34C24.4849 34 25.4602 33.806 26.3701 33.4291C27.2801 33.0522 28.1069 32.4997 28.8033 31.8033C29.4997 31.1069 30.0522 30.2801 30.4291 29.3701C30.806 28.4602 31 27.4849 31 26.5C31 25.5151 30.806 24.5398 30.4291 23.6299C30.0522 22.7199 29.4997 21.8931 28.8033 21.1967C28.1069 20.5003 27.2801 19.9478 26.3701 19.5709C25.4602 19.194 24.4849 19 23.5 19C22.5151 19 21.5398 19.194 20.6299 19.5709C19.7199 19.9478 18.8931 20.5003 18.1967 21.1967C17.5003 21.8931 16.9478 22.7199 16.5709 23.6299C16.194 24.5398 16 25.5151 16 26.5ZM33.5 26.5C33.5 29.1522 32.4464 31.6957 30.5711 33.5711C28.6957 35.4464 26.1522 36.5 23.5 36.5C20.8478 36.5 18.3043 35.4464 16.4289 33.5711C14.5536 31.6957 13.5 29.1522 13.5 26.5C13.5 25.6325 13.645 24.8025 13.8525 24H1V36.5C1 37.163 1.26339 37.7989 1.73223 38.2678C2.20107 38.7366 2.83696 39 3.5 39H38.5C39.163 39 39.7989 38.7366 40.2678 38.2678C40.7366 37.7989 41 37.163 41 36.5V24H33.1475C33.355 24.8025 33.5 25.6325 33.5 26.5Z" fill="#F9F9F9"/>
</svg>
