<svg width="42" height="48" viewBox="0 0 42 48" fill="none" xmlns="http://www.w3.org/2000/svg">
<path d="M41 21C41 40 22.5 41.3316 21 48C19 41.2817 1 40 1 21C1 9.9543 9.9543 1 21 1C32.0457 1 41 9.9543 41 21ZM3.6046 21C3.6046 30.6072 11.3928 38.3954 21 38.3954C30.6072 38.3954 38.3954 30.6072 38.3954 21C38.3954 11.3928 30.6072 3.6046 21 3.6046C11.3928 3.6046 3.6046 11.3928 3.6046 21Z" fill="#F9F9F9"/>
<path d="M19.8718 6.67432C19.8718 6.67432 19.4975 7.58389 18.8823 7.89406C17.7659 8.46428 16.5544 9.26222 16.4276 11.3871C16.1929 15.3241 17.6327 19.7515 19.0028 23.4874C17.7088 20.8551 16.4973 18.9269 13.1039 16.2248C11.5987 15.007 9.27468 13.0217 8.10061 13.453C7.45554 13.694 6.57324 13.1358 6.57324 13.1358C6.91005 13.8462 7.04833 14.6581 7.06926 15.4383C7.14918 17.1445 7.81835 19.0918 8.90997 20.6648C11.2943 24.0012 14.7404 25.422 17.6961 26.1197C15.0829 25.7265 13.0849 25.8026 9.9521 26.7604C8.50275 27.1917 7.9357 28.1621 7.5843 29.2468C7.39274 29.8494 6.76099 30.2172 6.76099 30.2172C7.33122 30.3695 7.92682 30.6042 8.3778 31.0101C9.38061 31.8791 10.7488 32.0059 12.3174 31.7395C15.9201 31.137 17.5503 30.0523 19.9986 27.8513C20.0747 30.8452 19.8274 33.9659 19.2819 36.4206L20.3982 36.6743C20.9691 34.1181 21.2165 30.9721 21.1467 27.9275C24.0644 29.4561 28.1366 31.2004 32.0374 30.0143C33.4773 29.5449 34.378 28.2192 34.9996 27.0839C35.285 26.5637 35.9764 26.4432 36.4965 26.1514C36.4965 26.1514 35.5704 26.0309 35.1137 25.4918C34.2638 24.5277 33.0269 23.8426 31.3524 23.8173C28.7835 23.7665 26.8363 24.3184 25.1173 25.0668C27.109 23.6777 29.2973 21.7622 31.9106 19.5802C34.175 17.2841 34.1433 16.4849 34.0735 14.7723C34.0291 13.9985 33.6358 13.453 33.9086 12.7299C33.9086 12.7299 33.0016 12.8123 32.3102 12.8123C30.8957 12.8123 30.1155 12.1019 28.7201 13.4466C25.9483 16.0726 24.0898 19.2821 22.6246 22.3521C23.6521 18.9015 24.2801 14.5186 23.5887 11.2393C23.2779 9.21401 22.7197 8.47824 21.0389 7.92514C20.3031 7.68093 20.1635 7.40121 19.8718 6.67432Z" fill="#F9F9F9"/>
</svg>
